<svg xmlns="http://www.w3.org/2000/svg" width="1200" height="630" viewBox="0 0 1200 630" fill="none">
  <rect width="1200" height="630" fill="white" />
  <rect width="1200" height="630" fill="url(#paint0_radial_2040_2333)" />
  <image href="og-logo.png" x="238.5" y="144" width="144" height="144" preserveAspectRatio="xMidYMid meet" />
  <path d="M431.781 251.46C427.109 251.46 423.013 250.596 419.493 248.868C415.973 247.076 413.253 244.612 411.333 241.476C409.413 238.276 408.453 234.564 408.453 230.34V217.86C408.453 213.572 409.413 209.86 411.333 206.724C413.253 203.588 415.973 201.156 419.493 199.428C423.013 197.636 427.109 196.74 431.781 196.74C438.757 196.74 444.325 198.5 448.485 202.02C452.645 205.54 454.853 210.34 455.109 216.42H440.709C440.517 214.18 439.621 212.42 438.021 211.14C436.485 209.86 434.405 209.22 431.781 209.22C428.901 209.22 426.693 209.956 425.157 211.428C423.621 212.9 422.853 215.044 422.853 217.86V230.34C422.853 233.092 423.621 235.236 425.157 236.772C426.693 238.244 428.901 238.98 431.781 238.98C434.405 238.98 436.485 238.372 438.021 237.156C439.621 235.876 440.517 234.084 440.709 231.78H455.109C454.853 237.86 452.645 242.66 448.485 246.18C444.325 249.7 438.757 251.46 431.781 251.46ZM495.805 250.5C492.093 250.5 488.829 249.732 486.013 248.196C483.197 246.596 480.989 244.388 479.389 241.572C477.853 238.756 477.085 235.492 477.085 231.78V193.38H460.765V180.42H491.485V231.78C491.485 233.508 491.997 234.916 493.021 236.004C494.109 237.028 495.517 237.54 497.245 237.54H512.605V250.5H495.805ZM536.022 251.46C530.71 251.46 526.486 250.02 523.35 247.14C520.278 244.26 518.742 240.356 518.742 235.428C518.742 230.116 520.566 226.052 524.214 223.236C527.926 220.356 533.238 218.916 540.15 218.916H551.094V214.98C551.094 212.932 550.358 211.3 548.886 210.084C547.478 208.868 545.558 208.26 543.126 208.26C540.886 208.26 539.03 208.772 537.558 209.796C536.086 210.82 535.19 212.228 534.87 214.02H520.95C521.526 208.708 523.83 204.516 527.862 201.444C531.958 198.308 537.206 196.74 543.606 196.74C550.326 196.74 555.638 198.404 559.542 201.732C563.51 204.996 565.494 209.412 565.494 214.98V250.5H551.574V241.86H549.27L551.67 238.5C551.67 242.468 550.23 245.636 547.35 248.004C544.534 250.308 540.758 251.46 536.022 251.46ZM541.398 240.9C544.214 240.9 546.518 240.164 548.31 238.692C550.166 237.156 551.094 235.172 551.094 232.74V227.076H540.438C538.262 227.076 536.502 227.716 535.158 228.996C533.814 230.212 533.142 231.844 533.142 233.892C533.142 236.068 533.878 237.796 535.35 239.076C536.822 240.292 538.838 240.9 541.398 240.9ZM578.35 250.5L570.67 197.7H582.19L586.03 226.5C586.35 228.612 586.606 231.012 586.798 233.7C587.054 236.388 587.246 238.596 587.374 240.324C587.566 238.596 587.822 236.42 588.142 233.796C588.526 231.108 588.878 228.676 589.198 226.5L593.614 197.7H603.598L607.822 226.5C608.142 228.676 608.462 231.108 608.782 233.796C609.166 236.484 609.454 238.692 609.646 240.42C609.774 238.628 609.966 236.388 610.222 233.7C610.542 230.948 610.83 228.548 611.086 226.5L615.118 197.7H626.35L618.574 250.5H604.174L600.238 220.74C599.982 218.948 599.694 216.804 599.374 214.308C599.054 211.812 598.798 209.732 598.606 208.068C598.35 209.732 598.062 211.812 597.742 214.308C597.422 216.804 597.134 218.948 596.878 220.74L592.846 250.5H578.35ZM631.719 250.5V180.42H646.119V197.7L645.639 207.78H649.863L645.639 211.14C645.639 206.66 646.919 203.14 649.479 200.58C652.039 198.02 655.495 196.74 659.847 196.74C664.967 196.74 669.063 198.532 672.135 202.116C675.271 205.7 676.839 210.468 676.839 216.42V250.5H662.439V217.86C662.439 215.108 661.703 212.996 660.231 211.524C658.823 209.988 656.807 209.22 654.183 209.22C651.623 209.22 649.639 209.988 648.231 211.524C646.823 212.996 646.119 215.108 646.119 217.86V250.5H631.719ZM709.855 251.46C702.751 251.46 697.183 249.54 693.151 245.7C689.183 241.86 687.199 236.612 687.199 229.956V197.7H701.599V229.86C701.599 232.804 702.303 235.076 703.711 236.676C705.119 238.212 707.167 238.98 709.855 238.98C712.479 238.98 714.495 238.212 715.903 236.676C717.375 235.076 718.111 232.804 718.111 229.86V197.7H732.511V229.956C732.511 236.676 730.495 241.956 726.463 245.796C722.431 249.572 716.895 251.46 709.855 251.46ZM771 251.46C766.648 251.46 763.224 250.212 760.728 247.716C758.232 245.156 756.984 241.604 756.984 237.06L760.344 240.42H756.984V250.5H743.064V180.42H757.464V194.82L756.984 207.78H760.344L756.984 211.14C756.984 206.596 758.232 203.076 760.728 200.58C763.224 198.02 766.648 196.74 771 196.74C776.312 196.74 780.568 198.628 783.768 202.404C786.968 206.116 788.568 211.108 788.568 217.38V230.82C788.568 237.156 786.968 242.18 783.768 245.892C780.568 249.604 776.312 251.46 771 251.46ZM765.816 238.98C768.504 238.98 770.552 238.244 771.96 236.772C773.432 235.236 774.168 233.092 774.168 230.34V217.86C774.168 215.108 773.432 212.996 771.96 211.524C770.552 209.988 768.504 209.22 765.816 209.22C763.192 209.22 761.144 209.988 759.672 211.524C758.2 212.996 757.464 215.108 757.464 217.86V230.34C757.464 233.092 758.2 235.236 759.672 236.772C761.144 238.244 763.192 238.98 765.816 238.98ZM821.2 251.46C818.256 251.46 815.888 250.596 814.096 248.868C812.368 247.076 811.504 244.708 811.504 241.764C811.504 238.756 812.368 236.388 814.096 234.66C815.888 232.932 818.256 232.068 821.2 232.068C824.208 232.068 826.576 232.932 828.304 234.66C830.032 236.388 830.896 238.756 830.896 241.764C830.896 244.708 830.032 247.076 828.304 248.868C826.576 250.596 824.208 251.46 821.2 251.46ZM870.057 251.46C864.745 251.46 860.521 250.02 857.385 247.14C854.313 244.26 852.777 240.356 852.777 235.428C852.777 230.116 854.601 226.052 858.249 223.236C861.961 220.356 867.273 218.916 874.185 218.916H885.129V214.98C885.129 212.932 884.393 211.3 882.921 210.084C881.513 208.868 879.593 208.26 877.161 208.26C874.921 208.26 873.065 208.772 871.593 209.796C870.121 210.82 869.225 212.228 868.905 214.02H854.985C855.561 208.708 857.865 204.516 861.897 201.444C865.993 198.308 871.241 196.74 877.641 196.74C884.361 196.74 889.673 198.404 893.577 201.732C897.545 204.996 899.529 209.412 899.529 214.98V250.5H885.609V241.86H883.305L885.705 238.5C885.705 242.468 884.265 245.636 881.385 248.004C878.569 250.308 874.793 251.46 870.057 251.46ZM875.433 240.9C878.249 240.9 880.553 240.164 882.345 238.692C884.201 237.156 885.129 235.172 885.129 232.74V227.076H874.473C872.297 227.076 870.537 227.716 869.193 228.996C867.849 230.212 867.177 231.844 867.177 233.892C867.177 236.068 867.913 237.796 869.385 239.076C870.857 240.292 872.873 240.9 875.433 240.9ZM910.465 250.5V237.444H928.705V210.66H912.865V197.7H942.145V237.444H957.505V250.5H910.465ZM934.465 189.348C931.841 189.348 929.729 188.676 928.129 187.332C926.593 185.988 925.825 184.164 925.825 181.86C925.825 179.556 926.593 177.732 928.129 176.388C929.729 175.044 931.841 174.372 934.465 174.372C937.089 174.372 939.169 175.044 940.705 176.388C942.305 177.732 943.105 179.556 943.105 181.86C943.105 184.164 942.305 185.988 940.705 187.332C939.169 188.676 937.089 189.348 934.465 189.348Z" fill="#F8EEE8" />
  <text x="600" y="401" fill="#D4453A" font-family="PT Mono, monospace" font-size="52" font-weight="700" text-anchor="middle">Claws for your Claws</text>
  <path d="M354.026 453V435.72H359.438C359.598 435.72 359.894 435.724 360.326 435.732C360.766 435.74 361.186 435.772 361.586 435.828C362.938 435.996 364.074 436.48 364.994 437.28C365.922 438.08 366.622 439.096 367.094 440.328C367.566 441.552 367.802 442.896 367.802 444.36C367.802 445.832 367.566 447.184 367.094 448.416C366.622 449.64 365.922 450.652 364.994 451.452C364.074 452.244 362.938 452.724 361.586 452.892C361.186 452.948 360.766 452.98 360.326 452.988C359.894 452.996 359.598 453 359.438 453H354.026ZM356.594 450.612H359.438C359.71 450.612 360.034 450.604 360.41 450.588C360.786 450.572 361.118 450.54 361.406 450.492C362.286 450.324 362.998 449.944 363.542 449.352C364.094 448.752 364.498 448.016 364.754 447.144C365.01 446.272 365.138 445.344 365.138 444.36C365.138 443.344 365.006 442.404 364.742 441.54C364.478 440.668 364.07 439.94 363.518 439.356C362.974 438.764 362.27 438.388 361.406 438.228C361.118 438.172 360.782 438.14 360.398 438.132C360.022 438.116 359.702 438.108 359.438 438.108H356.594V450.612ZM370.696 437.916V435.48H373.204V437.916H370.696ZM370.696 453V440.04H373.204V453H370.696ZM381.624 453.348C380.048 453.348 378.764 453 377.772 452.304C376.78 451.608 376.172 450.628 375.948 449.364L378.516 448.968C378.676 449.64 379.044 450.172 379.62 450.564C380.204 450.948 380.928 451.14 381.792 451.14C382.576 451.14 383.188 450.98 383.628 450.66C384.076 450.34 384.3 449.9 384.3 449.34C384.3 449.012 384.22 448.748 384.06 448.548C383.908 448.34 383.584 448.144 383.088 447.96C382.592 447.776 381.836 447.548 380.82 447.276C379.708 446.988 378.824 446.68 378.168 446.352C377.52 446.016 377.056 445.628 376.776 445.188C376.504 444.74 376.368 444.2 376.368 443.568C376.368 442.784 376.576 442.1 376.992 441.516C377.408 440.932 377.992 440.48 378.744 440.16C379.504 439.84 380.392 439.68 381.408 439.68C382.4 439.68 383.284 439.836 384.06 440.148C384.836 440.46 385.464 440.904 385.944 441.48C386.424 442.048 386.712 442.716 386.808 443.484L384.24 443.952C384.152 443.328 383.86 442.836 383.364 442.476C382.868 442.116 382.224 441.92 381.432 441.888C380.672 441.856 380.056 441.984 379.584 442.272C379.112 442.552 378.876 442.94 378.876 443.436C378.876 443.724 378.964 443.968 379.14 444.168C379.324 444.368 379.676 444.56 380.196 444.744C380.716 444.928 381.484 445.148 382.5 445.404C383.588 445.684 384.452 445.996 385.092 446.34C385.732 446.676 386.188 447.08 386.46 447.552C386.74 448.016 386.88 448.58 386.88 449.244C386.88 450.524 386.412 451.528 385.476 452.256C384.548 452.984 383.264 453.348 381.624 453.348ZM394.939 453.36C393.611 453.36 392.483 453.064 391.555 452.472C390.627 451.88 389.915 451.068 389.419 450.036C388.931 449.004 388.683 447.832 388.675 446.52C388.683 445.184 388.939 444.004 389.443 442.98C389.947 441.948 390.667 441.14 391.603 440.556C392.539 439.972 393.663 439.68 394.975 439.68C396.391 439.68 397.599 440.032 398.599 440.736C399.607 441.44 400.271 442.404 400.591 443.628L398.095 444.348C397.847 443.62 397.439 443.056 396.871 442.656C396.311 442.248 395.667 442.044 394.939 442.044C394.115 442.044 393.439 442.24 392.911 442.632C392.383 443.016 391.991 443.544 391.735 444.216C391.479 444.888 391.347 445.656 391.339 446.52C391.347 447.856 391.651 448.936 392.251 449.76C392.859 450.584 393.755 450.996 394.939 450.996C395.747 450.996 396.399 450.812 396.895 450.444C397.399 450.068 397.783 449.532 398.047 448.836L400.591 449.436C400.167 450.7 399.467 451.672 398.491 452.352C397.515 453.024 396.331 453.36 394.939 453.36ZM408.172 453.36C406.876 453.36 405.752 453.068 404.8 452.484C403.848 451.9 403.112 451.096 402.592 450.072C402.08 449.04 401.824 447.852 401.824 446.508C401.824 445.156 402.088 443.968 402.616 442.944C403.144 441.912 403.884 441.112 404.836 440.544C405.788 439.968 406.9 439.68 408.172 439.68C409.468 439.68 410.592 439.972 411.544 440.556C412.496 441.14 413.232 441.944 413.752 442.968C414.272 443.992 414.532 445.172 414.532 446.508C414.532 447.86 414.268 449.052 413.74 450.084C413.22 451.108 412.484 451.912 411.532 452.496C410.58 453.072 409.46 453.36 408.172 453.36ZM408.172 450.996C409.412 450.996 410.336 450.58 410.944 449.748C411.56 448.908 411.868 447.828 411.868 446.508C411.868 445.156 411.556 444.076 410.932 443.268C410.316 442.452 409.396 442.044 408.172 442.044C407.332 442.044 406.64 442.236 406.096 442.62C405.552 442.996 405.148 443.52 404.884 444.192C404.62 444.856 404.488 445.628 404.488 446.508C404.488 447.868 404.8 448.956 405.424 449.772C406.048 450.588 406.964 450.996 408.172 450.996ZM420.064 453L415.36 440.04H417.892L421.336 449.856L424.78 440.04H427.312L422.608 453H420.064ZM434.613 453.36C433.325 453.36 432.193 453.08 431.217 452.52C430.249 451.952 429.493 451.164 428.949 450.156C428.413 449.14 428.145 447.964 428.145 446.628C428.145 445.212 428.409 443.984 428.937 442.944C429.473 441.904 430.217 441.1 431.169 440.532C432.121 439.964 433.229 439.68 434.493 439.68C435.813 439.68 436.937 439.988 437.865 440.604C438.793 441.212 439.485 442.08 439.941 443.208C440.405 444.336 440.589 445.676 440.493 447.228H437.985V446.316C437.969 444.812 437.681 443.7 437.121 442.98C436.569 442.26 435.725 441.9 434.589 441.9C433.333 441.9 432.389 442.296 431.757 443.088C431.125 443.88 430.809 445.024 430.809 446.52C430.809 447.944 431.125 449.048 431.757 449.832C432.389 450.608 433.301 450.996 434.493 450.996C435.277 450.996 435.953 450.82 436.521 450.468C437.097 450.108 437.545 449.596 437.865 448.932L440.325 449.712C439.821 450.872 439.057 451.772 438.033 452.412C437.009 453.044 435.869 453.36 434.613 453.36ZM429.993 447.228V445.272H439.245V447.228H429.993ZM443.046 453V440.04H445.278V443.184L444.966 442.776C445.126 442.36 445.334 441.98 445.59 441.636C445.846 441.284 446.142 440.996 446.478 440.772C446.806 440.532 447.17 440.348 447.57 440.22C447.978 440.084 448.394 440.004 448.818 439.98C449.242 439.948 449.65 439.968 450.042 440.04V442.392C449.618 442.28 449.146 442.248 448.626 442.296C448.114 442.344 447.642 442.508 447.21 442.788C446.802 443.052 446.478 443.372 446.238 443.748C446.006 444.124 445.838 444.544 445.734 445.008C445.63 445.464 445.578 445.948 445.578 446.46V453H443.046ZM461.808 453.348C460.232 453.348 458.948 453 457.956 452.304C456.964 451.608 456.356 450.628 456.132 449.364L458.7 448.968C458.86 449.64 459.228 450.172 459.804 450.564C460.388 450.948 461.112 451.14 461.976 451.14C462.76 451.14 463.372 450.98 463.812 450.66C464.26 450.34 464.484 449.9 464.484 449.34C464.484 449.012 464.404 448.748 464.244 448.548C464.092 448.34 463.768 448.144 463.272 447.96C462.776 447.776 462.02 447.548 461.004 447.276C459.892 446.988 459.008 446.68 458.352 446.352C457.704 446.016 457.24 445.628 456.96 445.188C456.688 444.74 456.552 444.2 456.552 443.568C456.552 442.784 456.76 442.1 457.176 441.516C457.592 440.932 458.176 440.48 458.928 440.16C459.688 439.84 460.576 439.68 461.592 439.68C462.584 439.68 463.468 439.836 464.244 440.148C465.02 440.46 465.648 440.904 466.128 441.48C466.608 442.048 466.896 442.716 466.992 443.484L464.424 443.952C464.336 443.328 464.044 442.836 463.548 442.476C463.052 442.116 462.408 441.92 461.616 441.888C460.856 441.856 460.24 441.984 459.768 442.272C459.296 442.552 459.06 442.94 459.06 443.436C459.06 443.724 459.148 443.968 459.324 444.168C459.508 444.368 459.86 444.56 460.38 444.744C460.9 444.928 461.668 445.148 462.684 445.404C463.772 445.684 464.636 445.996 465.276 446.34C465.916 446.676 466.372 447.08 466.644 447.552C466.924 448.016 467.064 448.58 467.064 449.244C467.064 450.524 466.596 451.528 465.66 452.256C464.732 452.984 463.448 453.348 461.808 453.348ZM469.567 453L469.579 435.72H472.123V446.28L477.211 440.04H480.403L475.027 446.52L480.955 453H477.547L472.123 446.76V453H469.567ZM482.265 437.916V435.48H484.773V437.916H482.265ZM482.265 453V440.04H484.773V453H482.265ZM488.476 453V435.36H490.984V453H488.476ZM494.688 453V435.36H497.196V453H494.688ZM505.615 453.348C504.039 453.348 502.755 453 501.763 452.304C500.771 451.608 500.163 450.628 499.939 449.364L502.507 448.968C502.667 449.64 503.035 450.172 503.611 450.564C504.195 450.948 504.919 451.14 505.783 451.14C506.567 451.14 507.179 450.98 507.619 450.66C508.067 450.34 508.291 449.9 508.291 449.34C508.291 449.012 508.211 448.748 508.051 448.548C507.899 448.34 507.575 448.144 507.079 447.96C506.583 447.776 505.827 447.548 504.811 447.276C503.699 446.988 502.815 446.68 502.159 446.352C501.511 446.016 501.047 445.628 500.767 445.188C500.495 444.74 500.359 444.2 500.359 443.568C500.359 442.784 500.567 442.1 500.983 441.516C501.399 440.932 501.983 440.48 502.735 440.16C503.495 439.84 504.383 439.68 505.399 439.68C506.391 439.68 507.275 439.836 508.051 440.148C508.827 440.46 509.455 440.904 509.935 441.48C510.415 442.048 510.703 442.716 510.799 443.484L508.231 443.952C508.143 443.328 507.851 442.836 507.355 442.476C506.859 442.116 506.215 441.92 505.423 441.888C504.663 441.856 504.047 441.984 503.575 442.272C503.103 442.552 502.867 442.94 502.867 443.436C502.867 443.724 502.955 443.968 503.131 444.168C503.315 444.368 503.667 444.56 504.187 444.744C504.707 444.928 505.475 445.148 506.491 445.404C507.579 445.684 508.443 445.996 509.083 446.34C509.723 446.676 510.179 447.08 510.451 447.552C510.731 448.016 510.871 448.58 510.871 449.244C510.871 450.524 510.403 451.528 509.467 452.256C508.539 452.984 507.255 453.348 505.615 453.348ZM521.711 453.36C520.751 453.36 519.947 453.184 519.299 452.832C518.651 452.472 518.159 452 517.823 451.416C517.495 450.824 517.331 450.176 517.331 449.472C517.331 448.816 517.447 448.24 517.679 447.744C517.911 447.248 518.255 446.828 518.711 446.484C519.167 446.132 519.727 445.848 520.391 445.632C520.967 445.464 521.619 445.316 522.347 445.188C523.075 445.06 523.839 444.94 524.639 444.828C525.447 444.716 526.247 444.604 527.039 444.492L526.127 444.996C526.143 443.98 525.927 443.228 525.479 442.74C525.039 442.244 524.279 441.996 523.199 441.996C522.519 441.996 521.895 442.156 521.327 442.476C520.759 442.788 520.363 443.308 520.139 444.036L517.799 443.316C518.119 442.204 518.727 441.32 519.623 440.664C520.527 440.008 521.727 439.68 523.223 439.68C524.383 439.68 525.391 439.88 526.247 440.28C527.111 440.672 527.743 441.296 528.143 442.152C528.351 442.576 528.479 443.024 528.527 443.496C528.575 443.968 528.599 444.476 528.599 445.02V453H526.379V450.036L526.811 450.42C526.275 451.412 525.591 452.152 524.759 452.64C523.935 453.12 522.919 453.36 521.711 453.36ZM522.155 451.308C522.867 451.308 523.479 451.184 523.991 450.936C524.503 450.68 524.915 450.356 525.227 449.964C525.539 449.572 525.743 449.164 525.839 448.74C525.975 448.356 526.051 447.924 526.067 447.444C526.091 446.964 526.103 446.58 526.103 446.292L526.919 446.592C526.127 446.712 525.407 446.82 524.759 446.916C524.111 447.012 523.523 447.108 522.995 447.204C522.475 447.292 522.011 447.4 521.603 447.528C521.259 447.648 520.951 447.792 520.679 447.96C520.415 448.128 520.203 448.332 520.043 448.572C519.891 448.812 519.815 449.104 519.815 449.448C519.815 449.784 519.899 450.096 520.067 450.384C520.235 450.664 520.491 450.888 520.835 451.056C521.179 451.224 521.619 451.308 522.155 451.308ZM540.671 453V446.628C540.671 446.124 540.627 445.608 540.539 445.08C540.459 444.544 540.299 444.048 540.059 443.592C539.827 443.136 539.495 442.768 539.063 442.488C538.639 442.208 538.083 442.068 537.395 442.068C536.947 442.068 536.523 442.144 536.123 442.296C535.723 442.44 535.371 442.676 535.067 443.004C534.771 443.332 534.535 443.764 534.359 444.3C534.191 444.836 534.107 445.488 534.107 446.256L532.547 445.668C532.547 444.492 532.767 443.456 533.207 442.56C533.647 441.656 534.279 440.952 535.103 440.448C535.927 439.944 536.923 439.692 538.091 439.692C538.987 439.692 539.739 439.836 540.347 440.124C540.955 440.412 541.447 440.792 541.823 441.264C542.207 441.728 542.499 442.236 542.699 442.788C542.899 443.34 543.035 443.88 543.107 444.408C543.179 444.936 543.215 445.4 543.215 445.8V453H540.671ZM531.563 453V440.04H533.807V443.784H534.107V453H531.563ZM551.185 453.36C549.977 453.36 548.933 453.06 548.053 452.46C547.181 451.86 546.505 451.044 546.025 450.012C545.553 448.972 545.317 447.804 545.317 446.508C545.317 445.204 545.557 444.04 546.037 443.016C546.517 441.984 547.197 441.172 548.077 440.58C548.965 439.98 550.017 439.68 551.233 439.68C552.457 439.68 553.485 439.98 554.317 440.58C555.157 441.172 555.789 441.984 556.213 443.016C556.645 444.048 556.861 445.212 556.861 446.508C556.861 447.804 556.645 448.968 556.213 450C555.781 451.032 555.145 451.852 554.305 452.46C553.465 453.06 552.425 453.36 551.185 453.36ZM551.533 451.092C552.357 451.092 553.029 450.896 553.549 450.504C554.069 450.112 554.449 449.572 554.689 448.884C554.929 448.196 555.049 447.404 555.049 446.508C555.049 445.612 554.925 444.82 554.677 444.132C554.437 443.444 554.061 442.908 553.549 442.524C553.045 442.14 552.401 441.948 551.617 441.948C550.785 441.948 550.101 442.152 549.565 442.56C549.029 442.968 548.629 443.516 548.365 444.204C548.109 444.892 547.981 445.66 547.981 446.508C547.981 447.364 548.109 448.14 548.365 448.836C548.629 449.524 549.021 450.072 549.541 450.48C550.069 450.888 550.733 451.092 551.533 451.092ZM555.049 453V443.676H554.761V435.72H557.281V453H555.049ZM571.247 453.36C570.007 453.36 568.967 453.06 568.127 452.46C567.287 451.852 566.651 451.032 566.219 450C565.787 448.968 565.571 447.804 565.571 446.508C565.571 445.212 565.783 444.048 566.207 443.016C566.639 441.984 567.271 441.172 568.103 440.58C568.943 439.98 569.975 439.68 571.199 439.68C572.415 439.68 573.463 439.98 574.343 440.58C575.231 441.172 575.915 441.984 576.395 443.016C576.875 444.04 577.115 445.204 577.115 446.508C577.115 447.804 576.875 448.972 576.395 450.012C575.923 451.044 575.247 451.86 574.367 452.46C573.495 453.06 572.455 453.36 571.247 453.36ZM565.151 458.76V440.04H567.383V449.364H567.671V458.76H565.151ZM570.899 451.092C571.699 451.092 572.359 450.888 572.879 450.48C573.407 450.072 573.799 449.524 574.055 448.836C574.319 448.14 574.451 447.364 574.451 446.508C574.451 445.66 574.319 444.892 574.055 444.204C573.799 443.516 573.403 442.968 572.867 442.56C572.331 442.152 571.647 441.948 570.815 441.948C570.031 441.948 569.383 442.14 568.871 442.524C568.367 442.908 567.991 443.444 567.743 444.132C567.503 444.82 567.383 445.612 567.383 446.508C567.383 447.404 567.503 448.196 567.743 448.884C567.983 449.572 568.363 450.112 568.883 450.504C569.403 450.896 570.075 451.092 570.899 451.092ZM579.865 453V435.36H582.373V453H579.865ZM590.72 453.348C589.824 453.348 589.072 453.204 588.464 452.916C587.856 452.628 587.36 452.252 586.976 451.788C586.6 451.316 586.312 450.804 586.112 450.252C585.912 449.7 585.776 449.16 585.704 448.632C585.632 448.104 585.596 447.64 585.596 447.24V440.04H588.14V446.412C588.14 446.916 588.18 447.436 588.26 447.972C588.348 448.5 588.508 448.992 588.74 449.448C588.98 449.904 589.312 450.272 589.736 450.552C590.168 450.832 590.728 450.972 591.416 450.972C591.864 450.972 592.288 450.9 592.688 450.756C593.088 450.604 593.436 450.364 593.732 450.036C594.036 449.708 594.272 449.276 594.44 448.74C594.616 448.204 594.704 447.552 594.704 446.784L596.264 447.372C596.264 448.548 596.044 449.588 595.604 450.492C595.164 451.388 594.532 452.088 593.708 452.592C592.884 453.096 591.888 453.348 590.72 453.348ZM595.004 453V449.256H594.704V440.04H597.236V453H595.004ZM605.802 459.12C605.106 459.12 604.43 459.012 603.774 458.796C603.126 458.58 602.534 458.26 601.998 457.836C601.462 457.42 601.018 456.904 600.666 456.288L602.982 455.112C603.262 455.664 603.662 456.068 604.182 456.324C604.702 456.58 605.25 456.708 605.826 456.708C606.538 456.708 607.146 456.58 607.65 456.324C608.154 456.076 608.534 455.7 608.79 455.196C609.054 454.692 609.182 454.068 609.174 453.324V449.7H609.474V440.04H611.694V453.348C611.694 453.692 611.682 454.02 611.658 454.332C611.634 454.644 611.59 454.956 611.526 455.268C611.342 456.14 610.99 456.86 610.47 457.428C609.958 457.996 609.302 458.42 608.502 458.7C607.71 458.98 606.81 459.12 605.802 459.12ZM605.61 453.36C604.402 453.36 603.358 453.06 602.478 452.46C601.606 451.86 600.93 451.044 600.45 450.012C599.978 448.972 599.742 447.804 599.742 446.508C599.742 445.204 599.982 444.04 600.462 443.016C600.942 441.984 601.622 441.172 602.502 440.58C603.39 439.98 604.442 439.68 605.658 439.68C606.882 439.68 607.91 439.98 608.742 440.58C609.582 441.172 610.214 441.984 610.638 443.016C611.07 444.048 611.286 445.212 611.286 446.508C611.286 447.804 611.07 448.968 610.638 450C610.206 451.032 609.57 451.852 608.73 452.46C607.89 453.06 606.85 453.36 605.61 453.36ZM605.958 451.092C606.782 451.092 607.454 450.896 607.974 450.504C608.494 450.112 608.874 449.572 609.114 448.884C609.354 448.196 609.474 447.404 609.474 446.508C609.474 445.612 609.35 444.82 609.102 444.132C608.862 443.444 608.486 442.908 607.974 442.524C607.47 442.14 606.826 441.948 606.042 441.948C605.21 441.948 604.526 442.152 603.99 442.56C603.454 442.968 603.054 443.516 602.79 444.204C602.534 444.892 602.406 445.66 602.406 446.508C602.406 447.364 602.534 448.14 602.79 448.836C603.054 449.524 603.446 450.072 603.966 450.48C604.494 450.888 605.158 451.092 605.958 451.092ZM615.163 437.916V435.48H617.671V437.916H615.163ZM615.163 453V440.04H617.671V453H615.163ZM630.231 453V446.628C630.231 446.124 630.187 445.608 630.099 445.08C630.019 444.544 629.859 444.048 629.619 443.592C629.387 443.136 629.055 442.768 628.623 442.488C628.199 442.208 627.643 442.068 626.955 442.068C626.507 442.068 626.083 442.144 625.683 442.296C625.283 442.44 624.931 442.676 624.627 443.004C624.331 443.332 624.095 443.764 623.919 444.3C623.751 444.836 623.667 445.488 623.667 446.256L622.107 445.668C622.107 444.492 622.327 443.456 622.767 442.56C623.207 441.656 623.839 440.952 624.663 440.448C625.487 439.944 626.483 439.692 627.651 439.692C628.547 439.692 629.299 439.836 629.907 440.124C630.515 440.412 631.007 440.792 631.383 441.264C631.767 441.728 632.059 442.236 632.259 442.788C632.459 443.34 632.595 443.88 632.667 444.408C632.739 444.936 632.775 445.4 632.775 445.8V453H630.231ZM621.123 453V440.04H623.367V443.784H623.667V453H621.123ZM640.717 453.348C639.141 453.348 637.857 453 636.865 452.304C635.873 451.608 635.265 450.628 635.041 449.364L637.609 448.968C637.769 449.64 638.137 450.172 638.713 450.564C639.297 450.948 640.021 451.14 640.885 451.14C641.669 451.14 642.281 450.98 642.721 450.66C643.169 450.34 643.393 449.9 643.393 449.34C643.393 449.012 643.313 448.748 643.153 448.548C643.001 448.34 642.677 448.144 642.181 447.96C641.685 447.776 640.929 447.548 639.913 447.276C638.801 446.988 637.917 446.68 637.261 446.352C636.613 446.016 636.149 445.628 635.869 445.188C635.597 444.74 635.461 444.2 635.461 443.568C635.461 442.784 635.669 442.1 636.085 441.516C636.501 440.932 637.085 440.48 637.837 440.16C638.597 439.84 639.485 439.68 640.501 439.68C641.493 439.68 642.377 439.836 643.153 440.148C643.929 440.46 644.557 440.904 645.037 441.48C645.517 442.048 645.805 442.716 645.901 443.484L643.333 443.952C643.245 443.328 642.953 442.836 642.457 442.476C641.961 442.116 641.317 441.92 640.525 441.888C639.765 441.856 639.149 441.984 638.677 442.272C638.205 442.552 637.969 442.94 637.969 443.436C637.969 443.724 638.057 443.968 638.233 444.168C638.417 444.368 638.769 444.56 639.289 444.744C639.809 444.928 640.577 445.148 641.593 445.404C642.681 445.684 643.545 445.996 644.185 446.34C644.825 446.676 645.281 447.08 645.553 447.552C645.833 448.016 645.973 448.58 645.973 449.244C645.973 450.524 645.505 451.528 644.569 452.256C643.641 452.984 642.357 453.348 640.717 453.348ZM654.34 453V439.584C654.34 439.256 654.352 438.908 654.376 438.54C654.4 438.164 654.468 437.796 654.58 437.436C654.7 437.068 654.896 436.732 655.168 436.428C655.496 436.068 655.856 435.812 656.248 435.66C656.64 435.508 657.028 435.42 657.412 435.396C657.804 435.372 658.164 435.36 658.492 435.36H660.124V437.424H658.612C658.02 437.424 657.576 437.572 657.28 437.868C656.992 438.156 656.848 438.568 656.848 439.104V453H654.34ZM652.192 442.056V440.04H660.124V442.056H652.192ZM661.895 453V440.04H664.127V443.184L663.815 442.776C663.975 442.36 664.183 441.98 664.439 441.636C664.695 441.284 664.991 440.996 665.327 440.772C665.655 440.532 666.019 440.348 666.419 440.22C666.827 440.084 667.243 440.004 667.667 439.98C668.091 439.948 668.499 439.968 668.891 440.04V442.392C668.467 442.28 667.995 442.248 667.475 442.296C666.963 442.344 666.491 442.508 666.059 442.788C665.651 443.052 665.327 443.372 665.087 443.748C664.855 444.124 664.687 444.544 664.583 445.008C664.479 445.464 664.427 445.948 664.427 446.46V453H661.895ZM676.43 453.36C675.134 453.36 674.01 453.068 673.058 452.484C672.106 451.9 671.37 451.096 670.85 450.072C670.338 449.04 670.082 447.852 670.082 446.508C670.082 445.156 670.346 443.968 670.874 442.944C671.402 441.912 672.142 441.112 673.094 440.544C674.046 439.968 675.158 439.68 676.43 439.68C677.726 439.68 678.85 439.972 679.802 440.556C680.754 441.14 681.49 441.944 682.01 442.968C682.53 443.992 682.79 445.172 682.79 446.508C682.79 447.86 682.526 449.052 681.998 450.084C681.478 451.108 680.742 451.912 679.79 452.496C678.838 453.072 677.718 453.36 676.43 453.36ZM676.43 450.996C677.67 450.996 678.594 450.58 679.202 449.748C679.818 448.908 680.126 447.828 680.126 446.508C680.126 445.156 679.814 444.076 679.19 443.268C678.574 442.452 677.654 442.044 676.43 442.044C675.59 442.044 674.898 442.236 674.354 442.62C673.81 442.996 673.406 443.52 673.142 444.192C672.878 444.856 672.746 445.628 672.746 446.508C672.746 447.868 673.058 448.956 673.682 449.772C674.306 450.588 675.222 450.996 676.43 450.996ZM700.815 453L700.827 444.924C700.827 443.988 700.587 443.26 700.107 442.74C699.627 442.212 698.995 441.948 698.211 441.948C697.731 441.948 697.291 442.06 696.891 442.284C696.499 442.5 696.179 442.828 695.931 443.268C695.691 443.7 695.571 444.244 695.571 444.9L694.359 444.288C694.343 443.376 694.535 442.576 694.935 441.888C695.343 441.2 695.895 440.668 696.591 440.292C697.287 439.908 698.067 439.716 698.931 439.716C700.331 439.716 701.415 440.136 702.183 440.976C702.951 441.816 703.335 442.932 703.335 444.324L703.323 453H700.815ZM685.275 453V440.04H687.507V443.784H687.795V453H685.275ZM693.051 453L693.063 444.972C693.063 444.028 692.823 443.288 692.343 442.752C691.871 442.216 691.235 441.948 690.435 441.948C689.643 441.948 689.003 442.22 688.515 442.764C688.035 443.308 687.795 444.02 687.795 444.9L686.595 444.132C686.595 443.284 686.799 442.528 687.207 441.864C687.615 441.2 688.167 440.676 688.863 440.292C689.559 439.908 690.347 439.716 691.227 439.716C692.147 439.716 692.931 439.912 693.579 440.304C694.227 440.688 694.719 441.228 695.055 441.924C695.399 442.62 695.571 443.428 695.571 444.348L695.559 453H693.051ZM718.392 453C717.576 453.16 716.776 453.228 715.992 453.204C715.208 453.18 714.508 453.028 713.892 452.748C713.276 452.468 712.812 452.028 712.5 451.428C712.22 450.892 712.068 450.348 712.044 449.796C712.028 449.236 712.02 448.604 712.02 447.9V436.44H714.54V447.78C714.54 448.3 714.544 448.752 714.552 449.136C714.568 449.52 714.652 449.844 714.804 450.108C715.092 450.604 715.548 450.888 716.172 450.96C716.804 451.024 717.544 450.996 718.392 450.876V453ZM709.536 442.056V440.04H718.392V442.056H709.536ZM726.026 453.36C724.73 453.36 723.606 453.068 722.654 452.484C721.702 451.9 720.966 451.096 720.446 450.072C719.934 449.04 719.678 447.852 719.678 446.508C719.678 445.156 719.942 443.968 720.47 442.944C720.998 441.912 721.738 441.112 722.69 440.544C723.642 439.968 724.754 439.68 726.026 439.68C727.322 439.68 728.446 439.972 729.398 440.556C730.35 441.14 731.086 441.944 731.606 442.968C732.126 443.992 732.386 445.172 732.386 446.508C732.386 447.86 732.122 449.052 731.594 450.084C731.074 451.108 730.338 451.912 729.386 452.496C728.434 453.072 727.314 453.36 726.026 453.36ZM726.026 450.996C727.266 450.996 728.19 450.58 728.798 449.748C729.414 448.908 729.722 447.828 729.722 446.508C729.722 445.156 729.41 444.076 728.786 443.268C728.17 442.452 727.25 442.044 726.026 442.044C725.186 442.044 724.494 442.236 723.95 442.62C723.406 442.996 723.002 443.52 722.738 444.192C722.474 444.856 722.342 445.628 722.342 446.508C722.342 447.868 722.654 448.956 723.278 449.772C723.902 450.588 724.818 450.996 726.026 450.996ZM740.967 453.36C739.727 453.36 738.687 453.06 737.847 452.46C737.007 451.852 736.371 451.032 735.939 450C735.507 448.968 735.291 447.804 735.291 446.508C735.291 445.212 735.503 444.048 735.927 443.016C736.359 441.984 736.991 441.172 737.823 440.58C738.663 439.98 739.695 439.68 740.919 439.68C742.135 439.68 743.183 439.98 744.063 440.58C744.951 441.172 745.635 441.984 746.115 443.016C746.595 444.04 746.835 445.204 746.835 446.508C746.835 447.804 746.595 448.972 746.115 450.012C745.643 451.044 744.967 451.86 744.087 452.46C743.215 453.06 742.175 453.36 740.967 453.36ZM734.871 458.76V440.04H737.103V449.364H737.391V458.76H734.871ZM740.619 451.092C741.419 451.092 742.079 450.888 742.599 450.48C743.127 450.072 743.519 449.524 743.775 448.836C744.039 448.14 744.171 447.364 744.171 446.508C744.171 445.66 744.039 444.892 743.775 444.204C743.519 443.516 743.123 442.968 742.587 442.56C742.051 442.152 741.367 441.948 740.535 441.948C739.751 441.948 739.103 442.14 738.591 442.524C738.087 442.908 737.711 443.444 737.463 444.132C737.223 444.82 737.103 445.612 737.103 446.508C737.103 447.404 737.223 448.196 737.463 448.884C737.703 449.572 738.083 450.112 738.603 450.504C739.123 450.896 739.795 451.092 740.619 451.092ZM759.554 453.36C758.226 453.36 757.098 453.064 756.17 452.472C755.242 451.88 754.53 451.068 754.034 450.036C753.546 449.004 753.298 447.832 753.29 446.52C753.298 445.184 753.554 444.004 754.058 442.98C754.562 441.948 755.282 441.14 756.218 440.556C757.154 439.972 758.278 439.68 759.59 439.68C761.006 439.68 762.214 440.032 763.214 440.736C764.222 441.44 764.886 442.404 765.206 443.628L762.71 444.348C762.462 443.62 762.054 443.056 761.486 442.656C760.926 442.248 760.282 442.044 759.554 442.044C758.73 442.044 758.054 442.24 757.526 442.632C756.998 443.016 756.606 443.544 756.35 444.216C756.094 444.888 755.962 445.656 755.954 446.52C755.962 447.856 756.266 448.936 756.866 449.76C757.474 450.584 758.37 450.996 759.554 450.996C760.362 450.996 761.014 450.812 761.51 450.444C762.014 450.068 762.398 449.532 762.662 448.836L765.206 449.436C764.782 450.7 764.082 451.672 763.106 452.352C762.13 453.024 760.946 453.36 759.554 453.36ZM767.51 453V440.04H769.742V443.184L769.43 442.776C769.59 442.36 769.798 441.98 770.054 441.636C770.31 441.284 770.606 440.996 770.942 440.772C771.27 440.532 771.634 440.348 772.034 440.22C772.442 440.084 772.858 440.004 773.282 439.98C773.706 439.948 774.114 439.968 774.506 440.04V442.392C774.082 442.28 773.61 442.248 773.09 442.296C772.578 442.344 772.106 442.508 771.674 442.788C771.266 443.052 770.942 443.372 770.702 443.748C770.47 444.124 770.302 444.544 770.198 445.008C770.094 445.464 770.042 445.948 770.042 446.46V453H767.51ZM782.165 453.36C780.877 453.36 779.745 453.08 778.769 452.52C777.801 451.952 777.045 451.164 776.501 450.156C775.965 449.14 775.697 447.964 775.697 446.628C775.697 445.212 775.961 443.984 776.489 442.944C777.025 441.904 777.769 441.1 778.721 440.532C779.673 439.964 780.781 439.68 782.045 439.68C783.365 439.68 784.489 439.988 785.417 440.604C786.345 441.212 787.037 442.08 787.493 443.208C787.957 444.336 788.141 445.676 788.045 447.228H785.537V446.316C785.521 444.812 785.233 443.7 784.673 442.98C784.121 442.26 783.277 441.9 782.141 441.9C780.885 441.9 779.941 442.296 779.309 443.088C778.677 443.88 778.361 445.024 778.361 446.52C778.361 447.944 778.677 449.048 779.309 449.832C779.941 450.608 780.853 450.996 782.045 450.996C782.829 450.996 783.505 450.82 784.073 450.468C784.649 450.108 785.097 449.596 785.417 448.932L787.877 449.712C787.373 450.872 786.609 451.772 785.585 452.412C784.561 453.044 783.421 453.36 782.165 453.36ZM777.545 447.228V445.272H786.797V447.228H777.545ZM794.023 453.36C793.063 453.36 792.259 453.184 791.611 452.832C790.963 452.472 790.471 452 790.135 451.416C789.807 450.824 789.643 450.176 789.643 449.472C789.643 448.816 789.759 448.24 789.991 447.744C790.223 447.248 790.567 446.828 791.023 446.484C791.479 446.132 792.039 445.848 792.703 445.632C793.279 445.464 793.931 445.316 794.659 445.188C795.387 445.06 796.151 444.94 796.951 444.828C797.759 444.716 798.559 444.604 799.351 444.492L798.439 444.996C798.455 443.98 798.239 443.228 797.791 442.74C797.351 442.244 796.591 441.996 795.511 441.996C794.831 441.996 794.207 442.156 793.639 442.476C793.071 442.788 792.675 443.308 792.451 444.036L790.111 443.316C790.431 442.204 791.039 441.32 791.935 440.664C792.839 440.008 794.039 439.68 795.535 439.68C796.695 439.68 797.703 439.88 798.559 440.28C799.423 440.672 800.055 441.296 800.455 442.152C800.663 442.576 800.791 443.024 800.839 443.496C800.887 443.968 800.911 444.476 800.911 445.02V453H798.691V450.036L799.123 450.42C798.587 451.412 797.903 452.152 797.071 452.64C796.247 453.12 795.231 453.36 794.023 453.36ZM794.467 451.308C795.179 451.308 795.791 451.184 796.303 450.936C796.815 450.68 797.227 450.356 797.539 449.964C797.851 449.572 798.055 449.164 798.151 448.74C798.287 448.356 798.363 447.924 798.379 447.444C798.403 446.964 798.415 446.58 798.415 446.292L799.231 446.592C798.439 446.712 797.719 446.82 797.071 446.916C796.423 447.012 795.835 447.108 795.307 447.204C794.787 447.292 794.323 447.4 793.915 447.528C793.571 447.648 793.263 447.792 792.991 447.96C792.727 448.128 792.515 448.332 792.355 448.572C792.203 448.812 792.127 449.104 792.127 449.448C792.127 449.784 792.211 450.096 792.379 450.384C792.547 450.664 792.803 450.888 793.147 451.056C793.491 451.224 793.931 451.308 794.467 451.308ZM811.303 453C810.487 453.16 809.687 453.228 808.903 453.204C808.119 453.18 807.419 453.028 806.803 452.748C806.187 452.468 805.723 452.028 805.411 451.428C805.131 450.892 804.979 450.348 804.955 449.796C804.939 449.236 804.931 448.604 804.931 447.9V436.44H807.451V447.78C807.451 448.3 807.455 448.752 807.463 449.136C807.479 449.52 807.563 449.844 807.715 450.108C808.003 450.604 808.459 450.888 809.083 450.96C809.715 451.024 810.455 450.996 811.303 450.876V453ZM802.447 442.056V440.04H811.303V442.056H802.447ZM818.938 453.36C817.642 453.36 816.518 453.068 815.566 452.484C814.614 451.9 813.878 451.096 813.358 450.072C812.846 449.04 812.59 447.852 812.59 446.508C812.59 445.156 812.854 443.968 813.382 442.944C813.91 441.912 814.65 441.112 815.602 440.544C816.554 439.968 817.666 439.68 818.938 439.68C820.234 439.68 821.358 439.972 822.31 440.556C823.262 441.14 823.998 441.944 824.518 442.968C825.038 443.992 825.298 445.172 825.298 446.508C825.298 447.86 825.034 449.052 824.506 450.084C823.986 451.108 823.25 451.912 822.298 452.496C821.346 453.072 820.226 453.36 818.938 453.36ZM818.938 450.996C820.178 450.996 821.102 450.58 821.71 449.748C822.326 448.908 822.634 447.828 822.634 446.508C822.634 445.156 822.322 444.076 821.698 443.268C821.082 442.452 820.162 442.044 818.938 442.044C818.098 442.044 817.406 442.236 816.862 442.62C816.318 442.996 815.914 443.52 815.65 444.192C815.386 444.856 815.254 445.628 815.254 446.508C815.254 447.868 815.566 448.956 816.19 449.772C816.814 450.588 817.73 450.996 818.938 450.996ZM827.795 453V440.04H830.027V443.184L829.715 442.776C829.875 442.36 830.083 441.98 830.339 441.636C830.595 441.284 830.891 440.996 831.227 440.772C831.555 440.532 831.919 440.348 832.319 440.22C832.727 440.084 833.143 440.004 833.567 439.98C833.991 439.948 834.399 439.968 834.791 440.04V442.392C834.367 442.28 833.895 442.248 833.375 442.296C832.863 442.344 832.391 442.508 831.959 442.788C831.551 443.052 831.227 443.372 830.987 443.748C830.755 444.124 830.587 444.544 830.483 445.008C830.379 445.464 830.327 445.948 830.327 446.46V453H827.795ZM841.423 453.348C839.847 453.348 838.563 453 837.571 452.304C836.579 451.608 835.971 450.628 835.747 449.364L838.315 448.968C838.475 449.64 838.843 450.172 839.419 450.564C840.003 450.948 840.727 451.14 841.591 451.14C842.375 451.14 842.987 450.98 843.427 450.66C843.875 450.34 844.099 449.9 844.099 449.34C844.099 449.012 844.019 448.748 843.859 448.548C843.707 448.34 843.383 448.144 842.887 447.96C842.391 447.776 841.635 447.548 840.619 447.276C839.507 446.988 838.623 446.68 837.967 446.352C837.319 446.016 836.855 445.628 836.575 445.188C836.303 444.74 836.167 444.2 836.167 443.568C836.167 442.784 836.375 442.1 836.791 441.516C837.207 440.932 837.791 440.48 838.543 440.16C839.303 439.84 840.191 439.68 841.207 439.68C842.199 439.68 843.083 439.836 843.859 440.148C844.635 440.46 845.263 440.904 845.743 441.48C846.223 442.048 846.511 442.716 846.607 443.484L844.039 443.952C843.951 443.328 843.659 442.836 843.163 442.476C842.667 442.116 842.023 441.92 841.231 441.888C840.471 441.856 839.855 441.984 839.383 442.272C838.911 442.552 838.675 442.94 838.675 443.436C838.675 443.724 838.763 443.968 838.939 444.168C839.123 444.368 839.475 444.56 839.995 444.744C840.515 444.928 841.283 445.148 842.299 445.404C843.387 445.684 844.251 445.996 844.891 446.34C845.531 446.676 845.987 447.08 846.259 447.552C846.539 448.016 846.679 448.58 846.679 449.244C846.679 450.524 846.211 451.528 845.275 452.256C844.347 452.984 843.063 453.348 841.423 453.348Z" fill="#82828A" />
  <defs>
    <radialGradient id="paint0_radial_2040_2333" cx="0" cy="0" r="1" gradientUnits="userSpaceOnUse" gradientTransform="translate(600 315) rotate(90) scale(315 600)">
      <stop stop-color="#250705" />
      <stop offset="1" stop-color="#060608" />
    </radialGradient>
  </defs>
</svg>